<mxfile host="app.diagrams.net" modified="2023-07-04T21:02:50.291Z" agent="Mozilla/5.0 (Macintosh; Intel Mac OS X 10_15_7) AppleWebKit/537.36 (KHTML, like Gecko) Chrome/114.0.0.0 Safari/537.36" version="21.5.0" etag="48XV0IVdsvz0q0JpMDVm" type="github">
  <diagram name="Page-1" id="T5aYnoijHJ68lmIRCN85">
    <mxGraphModel>
      <root>
        <mxCell id="0" />
        <mxCell id="1" parent="0" />
      </root>
    </mxGraphModel>
  </diagram>
</mxfile>
